<svg width="43" height="43" viewBox="0 0 43 43" fill="none" xmlns="http://www.w3.org/2000/svg">
<path d="M39.1433 2.12341C39.1433 4.022 36.2969 4.022 36.2969 2.12341C36.2969 0.224814 39.1433 0.224814 39.1433 2.12341Z" fill="#A27FFF"/>
<path d="M21.0061 42.6637H21.1923C21.2646 42.6776 21.3063 42.6859 21.3563 42.6859H21.512C25.2202 42.6442 28.848 41.6602 32.0304 39.8256C41.3867 34.4246 45.2373 22.8692 40.9811 12.9535C40.667 12.2336 39.8358 11.8944 39.1104 12.2057C38.7629 12.3559 38.4905 12.6338 38.3487 12.9897C38.2069 13.3455 38.2125 13.7291 38.3626 14.0793C38.9186 15.3746 39.33 16.784 39.5801 18.2628L39.8636 19.9279H29.8868L29.8367 18.5602C29.6866 14.6546 29.2308 11.0882 28.5191 8.24175C27.1598 2.80457 24.7692 0.0360923 21.4029 0.00833926H21.2751C21.225 -1.77616e-07 21.175 0 21.125 0C17.5585 0 13.9362 0.989575 10.6841 2.86867C5.74449 5.72347 2.21729 10.3186 0.735704 15.8279C-0.737557 21.3346 0.015761 27.0857 2.87056 32.0258C6.58434 38.4581 13.5363 42.5442 21.0083 42.678L21.0061 42.6637ZM21.5676 39.8256H21.2674C16.7058 39.4559 15.8747 27.8056 15.7245 24.2475L15.6606 22.7687H27.0464L26.9825 24.2475C26.8324 27.8056 26.0013 39.447 21.5676 39.8256ZM28.5114 34.4467C29.223 31.6003 29.6789 28.0339 29.829 24.1283L29.8791 22.7606H39.8559L39.5724 24.4173C38.6412 29.8823 35.375 34.5942 30.5911 37.3545C30.4632 37.4268 30.3409 37.4963 30.213 37.5602L27.0191 39.2754L28.0726 35.9369C28.2422 35.3893 28.3784 34.9195 28.5007 34.4414L28.5114 34.4467ZM21.3532 2.83527C25.9704 2.83527 26.8321 14.7691 26.9823 18.4268L27.0462 19.9056H15.6603L15.7243 18.4268C15.8799 14.7687 16.7361 2.83527 21.3532 2.83527ZM3.1152 18.2489C3.21527 17.6735 3.3348 17.1036 3.48491 16.5477C4.75806 11.7721 7.82691 7.78841 12.1019 5.31199C12.2075 5.25639 12.3159 5.19801 12.4216 5.14242L15.6739 3.39953L14.6148 6.74356C14.4508 7.26893 14.309 7.75541 14.1867 8.2307C13.4751 11.0772 13.0192 14.6436 12.869 18.5491L12.819 19.9168H2.82862L3.11216 18.2518L3.1152 18.2489ZM12.8224 22.7604L12.8724 24.1281C13.0225 28.0336 13.4784 31.6 14.19 34.4465C14.304 34.9163 14.4402 35.3861 14.6181 35.9337L15.6772 39.2721L12.5889 37.6154C9.56457 35.9921 7.05171 33.5598 5.33116 30.5854C4.22203 28.6646 3.47427 26.5937 3.10458 24.4227L2.82661 22.766H12.817L12.8224 22.7604Z" fill="#A27FFF"/>
</svg>
