<svg width="24" height="29" viewBox="0 0 24 29" fill="none" xmlns="http://www.w3.org/2000/svg">
<path d="M17.2916 2.22332L17.2915 2.22327C15.773 1.11653 13.9857 0.534375 12.1213 0.534375C10.2566 0.534375 8.46982 1.12175 6.95156 2.223L6.95112 2.22332C3.85385 4.48292 2.90738 8.7892 4.7334 12.2455L4.73349 12.2457L11.5008 25.0253C11.501 25.0257 11.5011 25.0261 11.5013 25.0264C11.6226 25.2607 11.8633 25.4004 12.1214 25.4004C12.3794 25.4004 12.6202 25.2607 12.7414 25.0264C12.7416 25.026 12.7418 25.0257 12.742 25.0253L19.5092 12.2457C19.5092 12.2457 19.5092 12.2457 19.5092 12.2457C21.3407 8.78905 20.3886 4.48273 17.2916 2.22332ZM7.78084 3.36185L7.78089 3.36181C9.05507 2.43066 10.5586 1.94105 12.1214 1.94105C13.6841 1.94105 15.1876 2.43069 16.4619 3.36181L16.4621 3.362C18.9901 5.20317 19.7704 8.7414 18.2649 11.5911L12.1214 23.198L5.97794 11.5909C5.97794 11.5909 5.97793 11.5909 5.97793 11.5909C4.47277 8.74672 5.25249 5.20823 7.78084 3.36185Z" fill="#A27FFF" stroke="#A27FFF" stroke-width="0.4"/>
<path d="M17.4082 19.1328L17.4081 19.1328C17.0277 19.0483 16.6548 19.2884 16.5707 19.6671C16.4861 20.0475 16.7262 20.4204 17.1049 20.5045C18.5633 20.8286 19.7512 21.2824 20.5691 21.7941C21.3993 22.3135 21.7942 22.8565 21.7942 23.3436C21.7942 23.6809 21.5892 24.0631 21.1379 24.4581C20.69 24.8501 20.024 25.2319 19.1665 25.5665C17.4531 26.235 15.0104 26.7014 12.1214 26.7014C9.23247 26.7014 6.78975 26.235 5.07634 25.5665C4.21884 25.2319 3.55281 24.8501 3.10491 24.4581C2.65359 24.0631 2.44857 23.6809 2.44857 23.3436C2.44857 22.8591 2.84337 22.3161 3.67377 21.796C4.49169 21.2836 5.6796 20.8286 7.13788 20.5045C7.51661 20.4204 7.7567 20.0475 7.67217 19.6671C7.58801 19.2883 7.21512 19.0483 6.83472 19.1328L6.83466 19.1328C5.05578 19.5287 3.61876 20.1079 2.62134 20.8182C1.625 21.5277 1.04219 22.3884 1.04219 23.3437C1.04219 24.0512 1.37334 24.7045 1.94244 25.2783C2.51035 25.8508 3.32378 26.354 4.31745 26.7707C6.30549 27.6044 9.05301 28.1078 12.1214 28.1078C15.1899 28.1078 17.9374 27.6044 19.9254 26.7707C20.9191 26.354 21.7325 25.8509 22.3004 25.2783C22.8695 24.7045 23.2007 24.0512 23.2007 23.3437C23.2007 22.3884 22.6179 21.5278 21.6215 20.8183C20.6241 20.108 19.1871 19.5288 17.4082 19.1328Z" fill="#A27FFF" stroke="#A27FFF" stroke-width="0.4"/>
<path d="M7.40156 10.7282C7.40156 11.5058 8.03135 12.1433 8.81432 12.146V12.146H8.81931H15.4415C16.2207 12.146 16.8593 11.5135 16.8593 10.7282V6.26974C16.8593 5.49056 16.2268 4.85199 15.4415 4.85199H14.1665L14.1514 4.66828L14.1514 4.66828L14.1512 4.66678C14.0715 3.77848 13.3408 3.11091 12.4474 3.11091H11.8134C10.9249 3.11091 10.1894 3.78362 10.1096 4.66666L10.1096 4.66666L10.1095 4.66828L10.0944 4.85199H8.81931C8.04013 4.85199 7.40156 5.48446 7.40156 6.26974V10.7282ZM11.5041 4.85708L11.5094 4.79842L11.5143 4.74429C11.5502 4.61294 11.6654 4.52238 11.8084 4.52238H12.4425C12.6008 4.52238 12.731 4.63999 12.7465 4.79898C12.7466 4.79913 12.7466 4.79929 12.7466 4.79945L12.7518 4.85708H11.5041ZM8.80298 6.27483C8.80298 6.27305 8.80361 6.27024 8.80668 6.26717C8.80975 6.2641 8.81255 6.26348 8.81433 6.26348H15.4415C15.4433 6.26348 15.4461 6.2641 15.4492 6.26717C15.4523 6.27024 15.4529 6.27305 15.4529 6.27483V10.7333C15.4529 10.7351 15.4523 10.7379 15.4492 10.741C15.4461 10.744 15.4433 10.7447 15.4415 10.7447H8.81433C8.81255 10.7447 8.80975 10.744 8.80668 10.741C8.80361 10.7379 8.80298 10.7351 8.80298 10.7333V6.27483Z" fill="#A27FFF" stroke="#A27FFF" stroke-width="0.4"/>
</svg>
