<svg width="29" height="28" viewBox="0 0 29 28" fill="none" xmlns="http://www.w3.org/2000/svg">
<path d="M25.1166 0H4.65074C2.59942 0 0.929688 1.66973 0.929688 3.72106V17.2099C0.929688 19.2612 2.59942 20.9309 4.65074 20.9309H10.2323V26.0474H6.97641C6.46402 26.0474 6.04614 26.4653 6.04614 26.9777C6.04614 27.49 6.46404 27.9079 6.97641 27.9079H22.7909C23.3033 27.9079 23.7212 27.49 23.7212 26.9777C23.7212 26.4653 23.3033 26.0474 22.7909 26.0474H19.535V20.9309H25.1166C27.1679 20.9309 28.8376 19.2612 28.8376 17.2099V3.72106C28.8376 1.66973 27.1679 0 25.1166 0ZM17.6744 26.0474H12.0929V20.9309H17.6744V26.0474ZM26.9771 17.2099C26.9771 18.2383 26.1449 19.0704 25.1166 19.0704H4.65074C3.62238 19.0704 2.79022 18.2383 2.79022 17.2099V3.72106C2.79022 2.6927 3.62238 1.86053 4.65074 1.86053H25.1166C26.1449 1.86053 26.9771 2.6927 26.9771 3.72106V17.2099Z" fill="#A27FFF"/>
<path d="M10.2011 19.2643C10.2011 16.5277 12.3054 14.3184 14.8832 14.3184C17.4609 14.3184 19.5653 16.5277 19.5653 19.2643C19.5653 19.6385 19.854 19.9543 20.2244 19.9543C20.5948 19.9543 20.8835 19.6385 20.8835 19.2643C20.8835 15.7799 18.2017 12.9386 14.8832 12.9386C11.5647 12.9386 8.88281 15.7799 8.88281 19.2643C8.88281 19.6385 9.17155 19.9543 9.54194 19.9543C9.91232 19.9543 10.2011 19.6385 10.2011 19.2643ZM14.8832 5.01587C12.9325 5.01587 11.3611 6.68556 11.3611 8.72653C11.3611 10.7681 12.9325 12.4372 14.8832 12.4372C16.8338 12.4372 18.4052 10.7681 18.4052 8.72653C18.4052 6.68556 16.8338 5.01587 14.8832 5.01587ZM14.8832 6.39574C16.0931 6.39574 17.0869 7.4334 17.0869 8.72653C17.0869 10.0197 16.0931 11.0573 14.8832 11.0573C13.6733 11.0573 12.6794 10.0197 12.6794 8.72653C12.6794 7.4334 13.6733 6.39574 14.8832 6.39574Z" fill="#A27FFF" stroke="#A27FFF" stroke-width="0.25"/>
</svg>
