<svg width="28" height="28" viewBox="0 0 28 28" fill="none" xmlns="http://www.w3.org/2000/svg">
<path d="M24.9049 1.71925C24.9049 2.92727 23.0938 2.92727 23.0938 1.71925C23.0938 0.511227 24.9049 0.511227 24.9049 1.71925Z" fill="#A27FFF"/>
<path d="M13.3656 27.5139H13.4841C13.5301 27.5228 13.5566 27.5281 13.5884 27.5281H13.6875C16.0469 27.5015 18.3552 26.8754 20.3801 25.7081C26.3332 22.2716 28.7833 14.9192 26.0752 8.61013C25.8753 8.15205 25.3465 7.93625 24.8848 8.13434C24.6638 8.22985 24.4904 8.40672 24.4002 8.63313C24.31 8.85952 24.3136 9.10361 24.4091 9.32643C24.7628 10.1506 25.0246 11.0474 25.1837 11.9883L25.3641 13.0477H19.0161L18.9843 12.1775C18.8888 9.6925 18.5987 7.42329 18.1459 5.61216C17.281 2.15263 15.76 0.391129 13.6181 0.37347H13.5367C13.5049 0.368164 13.4731 0.368164 13.4412 0.368164C11.172 0.368164 8.86722 0.997804 6.79801 2.19342C3.65506 4.00985 1.4108 6.9336 0.468108 10.439C-0.469287 13.9428 0.0100283 17.6021 1.82646 20.7453C4.18944 24.838 8.61276 27.4379 13.367 27.523L13.3656 27.5139ZM13.7229 25.7081H13.5318C10.6294 25.4728 10.1006 18.0601 10.0051 15.7962L9.96439 14.8553H17.2089L17.1682 15.7962C17.0727 18.0601 16.5439 25.4672 13.7229 25.7081ZM18.141 22.2857C18.5938 20.4745 18.8839 18.2053 18.9794 15.7203L19.0112 14.8501H25.3592L25.1788 15.9042C24.5863 19.3815 22.5081 22.3795 19.4643 24.1358C19.3829 24.1818 19.3051 24.226 19.2237 24.2667L17.1915 25.358L17.8618 23.2338C17.9697 22.8854 18.0564 22.5865 18.1342 22.2823L18.141 22.2857ZM13.5865 2.17217C16.5243 2.17217 17.0725 9.76533 17.1681 12.0926L17.2088 13.0336H9.96424L10.0049 12.0926C10.104 9.76506 10.6487 2.17217 13.5865 2.17217ZM1.98212 11.9794C2.04579 11.6133 2.12184 11.2507 2.21735 10.897C3.02743 7.85844 4.98005 5.32372 7.70009 3.74803C7.76731 3.71266 7.83628 3.67552 7.90349 3.64015L9.97285 2.53119L9.29897 4.65891C9.19462 4.99319 9.10441 5.30272 9.02659 5.60513C8.57381 7.41626 8.28376 9.68547 8.18822 12.1705L8.15639 13.0407H1.79977L1.98018 11.9813L1.98212 11.9794ZM8.15852 14.85L8.19036 15.7202C8.28587 18.2052 8.57593 20.4744 9.02873 22.2855C9.10125 22.5844 9.18791 22.8833 9.30111 23.2318L9.97498 25.3559L8.01 24.3018C6.08567 23.2689 4.48681 21.7213 3.39207 19.8288C2.68636 18.6067 2.21058 17.289 1.97536 15.9076L1.79849 14.8535H8.15511L8.15852 14.85Z" fill="#A27FFF"/>
</svg>
