<svg width="45" height="40" viewBox="0 0 45 40" fill="none" xmlns="http://www.w3.org/2000/svg">
<path d="M14.1943 19.8749C14.3963 19.8749 14.5959 19.9188 14.7803 20.0029L26.6543 25.4326L26.7266 25.4658V25.496C26.9514 25.6139 27.1425 25.7902 27.2803 26.0078L27.334 26.0995C27.4516 26.3184 27.5136 26.5646 27.5137 26.8154C27.5137 27.0663 27.4517 27.3132 27.334 27.5322L27.2803 27.624C27.1468 27.8346 26.9637 28.0072 26.748 28.1249L26.6533 28.1718L22.2285 30.1874V35.5898L22.1914 35.6269L21.7959 36.0204L21.793 36.0234C19.704 37.9633 17.0049 39.0648 14.1904 39.1249H14.1846C11.3604 39.0566 8.65578 37.9403 6.56934 35.9824L6.56641 35.9794L6.1709 35.5859L6.13379 35.5497V31.1074L6.21484 31.0771L7.53418 30.5751L7.70312 30.5107V30.5146L9.31445 29.8964L9.36328 29.8779L9.41113 29.8994L14.1865 32.0742L25.7598 26.7812L14.1875 21.4892L2.61523 26.7812L6.14453 28.3974L12.5332 25.9326L12.582 25.913L12.6299 25.9355L14.2393 26.6679L14.5107 26.7919L14.2324 26.8984L5.07812 30.4238V38.3212C5.07812 38.5333 4.99634 38.7376 4.84961 38.8886C4.70287 39.0395 4.50299 39.1248 4.29395 39.1249C4.11093 39.1249 3.9344 39.0598 3.79492 38.9423L3.7373 38.8886C3.59058 38.7376 3.5088 38.5333 3.50879 38.3212V29.4091L3.5918 29.3798L4.09082 29.1992L1.73633 28.1445H1.73535C1.51077 28.0426 1.3163 27.8839 1.16895 27.6845L1.1084 27.5966C0.956074 27.356 0.875059 27.0755 0.875 26.789C0.875 26.5023 0.955916 26.2211 1.1084 25.9804L1.16895 25.8925C1.31629 25.6932 1.51083 25.5344 1.73535 25.4326L13.6084 20.0029L13.749 19.9472C13.8925 19.8994 14.0428 19.875 14.1943 19.8749ZM7.70312 34.871C9.48995 36.5108 11.7818 37.4478 14.1748 37.5165C16.5676 37.4477 18.8588 36.5105 20.6455 34.871V30.8847L14.7666 33.5195L14.7676 33.5204C14.5832 33.6045 14.3835 33.6483 14.1816 33.6484C13.9796 33.6484 13.7792 33.6045 13.5947 33.5204V33.5195L7.70312 30.8779V34.871Z" fill="#A27FFF" stroke="#A27FFF" stroke-width="0.25"/>
<path d="M26.7042 36.889H39.2206C41.4297 36.889 43.2206 35.0981 43.2206 32.889V5.00001C43.2206 2.79087 41.4297 1 39.2206 1H7.10937C4.90024 1 3.10938 2.79086 3.10938 5V19.2046" stroke="#A27FFF" stroke-width="2"/>
<line x1="7.33594" y1="7.38904" x2="40.0582" y2="7.38904" stroke="#A27FFF" stroke-width="2"/>
<line x1="7.33594" y1="14.778" x2="40.0582" y2="14.778" stroke="#A27FFF" stroke-width="2"/>
<line x1="33.7188" y1="21.1113" x2="40.0521" y2="21.1113" stroke="#A27FFF" stroke-width="2"/>
<line x1="33.7188" y1="28.5001" x2="40.0521" y2="28.5001" stroke="#A27FFF" stroke-width="2"/>
</svg>
