<svg width="16" height="22" viewBox="0 0 16 22" fill="none" xmlns="http://www.w3.org/2000/svg">
<path d="M7.99902 0.799805C9.50982 0.799806 10.9629 1.21916 12.2217 2.01953L12.4707 2.18457L12.7178 2.36328C15.1252 4.19994 15.8867 7.45488 14.5361 10.1621L14.3945 10.4307L8.55566 20.8799C8.44349 21.0841 8.22557 21.2002 7.99902 21.2002C7.77248 21.2002 7.55455 21.0841 7.44238 20.8799L1.60352 10.4307C0.0169655 7.58451 0.842646 4.04061 3.52734 2.18457L3.77637 2.01953C5.03487 1.22244 6.48791 0.799805 7.99902 0.799805ZM7.99902 2.02246C6.73842 2.02246 5.52342 2.37366 4.47461 3.04199L4.2666 3.18066C2.09892 4.681 1.43502 7.54935 2.72168 9.85352L7.99902 19.3018L13.2764 9.85352L13.3916 9.63574C14.4842 7.44025 13.8743 4.80538 11.9307 3.32422L11.7314 3.18066C10.6367 2.42265 9.3438 2.02246 7.99902 2.02246Z" fill="#A27FFF" stroke="#A27FFF" stroke-width="0.4"/>
</svg>
