<?xml version="1.0" encoding="utf-8"?><svg xmlns="http://www.w3.org/2000/svg" xmlns:xlink="http://www.w3.org/1999/xlink"><symbol viewBox="0 0 12 15" id="arrow_accordion" xmlns="http://www.w3.org/2000/svg"><path d="M5.47 14.53a.75.75 0 001.06 0l4.773-4.773a.75.75 0 10-1.06-1.06L6 12.939 1.757 8.697a.75.75 0 00-1.06 1.06L5.47 14.53zM5.25 0v14h1.5V0h-1.5z"/></symbol><symbol viewBox="0 0 15 12" id="arrow_back" xmlns="http://www.w3.org/2000/svg"><path d="M.47 5.47a.75.75 0 000 1.06l4.773 4.773a.75.75 0 101.06-1.06L2.061 6l4.242-4.243a.75.75 0 00-1.06-1.06L.47 5.47zM15 5.25H1v1.5h14v-1.5z"/></symbol><symbol viewBox="0 0 16 16" id="arrow_btn" xmlns="http://www.w3.org/2000/svg"><path d="M15.707 8.6a1 1 0 000-1.415L9.343.821A1 1 0 007.93 2.235l5.657 5.657-5.657 5.657a1 1 0 001.414 1.414L15.707 8.6zM0 8.891h15v-2H0v2z"/></symbol><symbol viewBox="0 0 12 12" id="arrow_down" xmlns="http://www.w3.org/2000/svg"><path d="M5.47 11.53a.75.75 0 001.06 0l4.773-4.773a.75.75 0 10-1.06-1.06L6 9.939 1.757 5.697a.75.75 0 00-1.06 1.06L5.47 11.53zM5.25 0v11h1.5V0h-1.5z"/></symbol><symbol viewBox="0 0 22 16" id="arrow_nav" xmlns="http://www.w3.org/2000/svg"><path d="M21.707 8.707a1 1 0 000-1.414L15.343.929a1 1 0 10-1.414 1.414L19.586 8l-5.657 5.657a1 1 0 001.414 1.414l6.364-6.364zM0 9h21V7H0v2z"/></symbol><symbol viewBox="0 0 15 12" id="arrow_next" xmlns="http://www.w3.org/2000/svg"><path d="M13.806 6.54a.75.75 0 000-1.06L9.033.705a.75.75 0 10-1.06 1.061l4.242 4.243-4.243 4.242a.75.75 0 001.06 1.061l4.774-4.773zM.742 6.76h12.534v-1.5H.741v1.5z"/></symbol><symbol viewBox="0 0 12 15" id="arrow_post" xmlns="http://www.w3.org/2000/svg"><path d="M6.716 6.483C4.976 4.805 4.128 2.609 3.792 0h1.733c.602 3.758 2.203 6.287 5.551 6.607v1.764C7.734 8.708 6.126 11.222 5.52 15H3.793c.32-2.66 1.218-4.855 3.059-6.49H-.924V6.484h7.64z"/></symbol><symbol viewBox="0 0 14 12" id="arrow_prev" xmlns="http://www.w3.org/2000/svg"><path d="M.214 6.54a.75.75 0 010-1.06L4.987.705a.75.75 0 111.06 1.061L1.805 6.01l4.242 4.242a.75.75 0 01-1.06 1.061L.214 6.54zm13.063.22H.744v-1.5h12.533v1.5z"/></symbol><symbol viewBox="0 0 12 12" id="arrow_small" xmlns="http://www.w3.org/2000/svg"><path d="M11.53 6.53a.75.75 0 000-1.06L6.757.697a.75.75 0 10-1.06 1.06L9.939 6l-4.242 4.243a.75.75 0 001.06 1.06L11.53 6.53zM0 6.75h11v-1.5H0v1.5z"/></symbol><symbol viewBox="0 0 32 28" id="classroom_icon" xmlns="http://www.w3.org/2000/svg"><path d="M10.18 14.094c.146 0 .29.031.424.091l8.261 3.779.073.034v.024a1.052 1.052 0 01.547.939c0 .207-.058.41-.168.583a1.05 1.05 0 01-.453.395h.001l-3.057 1.392v3.751l-.037.036-.275.275-.003.002-.086-.091.085.091a8.061 8.061 0 01-5.313 2.169h-.006a8.065 8.065 0 01-5.324-2.198l-.002-.002-.276-.274-.037-.036V21.92l.08-.03.918-.35.17-.064v.002l1.07-.41.048-.02.048.022 3.307 1.506 7.96-3.64-7.96-3.641-7.961 3.642L4.58 20.02l4.43-1.71.05-.018.047.021 1.12.51.271.124-.277.107-6.346 2.443v5.469a.607.607 0 01-.097.33l-.072.09a.579.579 0 01-.74.076l-.09-.075a.604.604 0 01-.168-.421v-6.228l.082-.029.259-.094-1.553-.694v-.001a1.043 1.043 0 01-.361-.272l-.092-.124a1.09 1.09 0 010-1.165l.092-.123c.099-.115.221-.21.36-.272l8.262-3.778.101-.04c.104-.035.213-.052.323-.052zM5.703 24.548a6.914 6.914 0 004.464 1.82 6.914 6.914 0 004.465-1.82V21.85l-4.037 1.811h-.001a1.021 1.021 0 01-.845 0l-4.046-1.815v2.702z"/><path d="M18.885 25.97h7.492a4 4 0 004-4V5a4 4 0 00-4-4H6.469a4 4 0 00-4 4v8.666M5.406 5.141h22.767M5.406 10.281h22.767M23.766 14.688h4.406M23.766 19.828h4.406" fill="none"/></symbol><symbol viewBox="0 0 17 13" id="email_icon" xmlns="http://www.w3.org/2000/svg"><path d="M8.5 7.516a3.478 3.478 0 01-2.04-.65L1.19 3.088a.79.79 0 01-.17-1.138.876.876 0 011.19-.162l5.27 3.778c.6.43 1.44.43 2.04 0l5.27-3.778a.876.876 0 011.19.162.79.79 0 01-.17 1.138l-5.27 3.778a3.478 3.478 0 01-2.04.65z"/><path d="M14.45 13H2.55C1.144 13 0 11.906 0 10.562V2.438C0 1.093 1.144 0 2.55 0h11.9C15.856 0 17 1.093 17 2.438v8.125C17 11.905 15.856 13 14.45 13zM2.55 1.625c-.469 0-.85.365-.85.813v8.125c0 .447.381.812.85.812h11.9c.469 0 .85-.364.85-.813V2.438c0-.449-.381-.813-.85-.813H2.55z"/></symbol><symbol viewBox="0 0 13 19" id="location_icon" xmlns="http://www.w3.org/2000/svg"><path d="M6.498 0C2.916 0 0 3.126 0 6.967c0 6.758 6.131 11.895 6.131 11.895a.56.56 0 00.737 0S13 13.725 13 6.967C13 3.127 10.08 0 6.498 0zm0 1.267c2.943 0 5.32 2.544 5.32 5.7 0 5.528-4.669 9.896-5.316 10.487-.644-.588-5.32-4.957-5.32-10.487 0-3.156 2.372-5.7 5.316-5.7z"/><path d="M6.5 3.802c-1.625 0-2.953 1.424-2.953 3.165 0 1.742 1.328 3.17 2.952 3.17 1.625 0 2.957-1.428 2.957-3.17 0-1.741-1.332-3.165-2.957-3.165zm0 1.267c.985 0 1.774.841 1.774 1.898S7.485 8.87 6.5 8.87c-.986 0-1.77-.846-1.77-1.903s.784-1.898 1.77-1.898z"/></symbol><symbol viewBox="0 0 28 28" id="online_icon" xmlns="http://www.w3.org/2000/svg"><path d="M24.905 1.351c0 1.208-1.811 1.208-1.811 0s1.81-1.208 1.81 0zM13.366 27.146h.118c.046.009.073.014.104.014h.1a13.712 13.712 0 006.692-1.82c5.953-3.437 8.403-10.789 5.695-17.098a.908.908 0 00-1.666.716c.354.824.616 1.721.775 2.662l.18 1.06h-6.348l-.032-.87c-.095-2.486-.385-4.755-.838-6.566C17.28 1.784 15.76.023 13.618.005h-.081C13.505 0 13.473 0 13.44 0c-2.269 0-4.574.63-6.643 1.825a13.506 13.506 0 00-6.33 8.246 13.49 13.49 0 001.358 10.306c2.363 4.093 6.787 6.693 11.541 6.778l-.001-.01zm.357-1.806h-.191c-2.903-.235-3.431-7.648-3.527-9.912l-.04-.94h7.244l-.04.94c-.096 2.264-.625 9.671-3.446 9.912zm4.418-3.422c.453-1.812.743-4.08.838-6.566l.032-.87h6.348l-.18 1.054a11.738 11.738 0 01-5.715 8.232c-.081.046-.159.09-.24.13l-2.032 1.092.67-2.124c.108-.349.194-.648.272-.952l.007.003zM13.587 1.803c2.937 0 3.486 7.593 3.581 9.92l.04.941H9.965l.04-.94c.1-2.328.645-9.921 3.582-9.921zM1.981 11.611c.064-.366.14-.728.235-1.082A11.697 11.697 0 017.7 3.379c.067-.034.136-.072.203-.107l2.07-1.109-.674 2.128a19.36 19.36 0 00-.272.946c-.453 1.811-.743 4.08-.839 6.565l-.032.87H1.8l.18-1.059.002-.002zm6.177 2.87l.031.871c.096 2.485.386 4.754.839 6.565.072.3.159.598.272.947l.674 2.124-1.965-1.054a11.757 11.757 0 01-6.035-8.395l-.177-1.054h6.357l.004-.003z"/></symbol><symbol fill="none" stroke-width="1.5" viewBox="0 0 17 16" id="search_icon" xmlns="http://www.w3.org/2000/svg"><circle cx="6.4" cy="6.4" r="5.65"/><path d="M10.929 10.67l4.8 4.8"/></symbol><symbol viewBox="0 0 32 32" id="soc_in" xmlns="http://www.w3.org/2000/svg"><path d="M29.09 0H2.91A2.908 2.908 0 000 2.91v26.18A2.908 2.908 0 002.91 32h26.18A2.908 2.908 0 0032 29.09V2.91A2.908 2.908 0 0029.09 0zM10.117 26.182h-4.29V12.378h4.29v13.804zM7.927 10.4a2.502 2.502 0 110-5.003 2.502 2.502 0 010 5.003zM26.19 26.182H21.9v-6.713c0-1.6-.03-3.658-2.233-3.658-2.204 0-2.575 1.745-2.575 3.542v6.829H12.8V12.378h4.116v1.884h.058c.575-1.084 1.971-2.233 4.059-2.233 4.341 0 5.149 2.858 5.149 6.575v7.57l.007.008z"/></symbol><symbol viewBox="0 0 48 34" id="soc_y" xmlns="http://www.w3.org/2000/svg"><path fill-rule="evenodd" clip-rule="evenodd" d="M19.172 23.28V9.65c4.781 2.277 8.485 4.477 12.864 6.847-3.612 2.028-8.083 4.3-12.864 6.782zM45.818 2.873c-.825-1.1-2.23-1.956-3.727-2.24-4.399-.843-31.84-.846-36.237 0-1.2.229-2.269.779-3.187 1.633C-1.2 5.9.011 25.382.944 28.538c.391 1.366.898 2.351 1.537 2.998.822.855 1.948 1.444 3.242 1.707 3.621.759 22.28 1.182 36.292.114a6.255 6.255 0 003.334-1.727c3.577-3.618 3.333-24.196.47-28.757z"/></symbol><symbol viewBox="0 0 17 16" id="tel_icon" xmlns="http://www.w3.org/2000/svg"><path d="M11.859 10.265l-.43.426s-1.023 1.013-3.814-1.753C4.825 6.173 5.847 5.16 5.847 5.16l.27-.269c.668-.66.73-1.722.149-2.497L5.075.808C4.355-.15 2.962-.277 2.135.541L.654 2.01c-.41.406-.684.932-.65 1.515.085 1.493.763 4.705 4.545 8.453 4.01 3.974 7.774 4.132 9.313 3.989.487-.045.91-.292 1.251-.63l1.342-1.33c.905-.897.65-2.435-.509-3.063l-1.804-.978c-.76-.412-1.688-.29-2.282.299z"/></symbol><symbol viewBox="0 0 28 28" id="virtual_icon" xmlns="http://www.w3.org/2000/svg"><path d="M24.187 0H3.72A3.726 3.726 0 000 3.721V17.21a3.726 3.726 0 003.721 3.72h5.582v5.117H6.047a.932.932 0 00-.93.93c0 .513.417.93.93.93H21.86c.513 0 .93-.417.93-.93a.932.932 0 00-.93-.93h-3.256v-5.116h5.582a3.726 3.726 0 003.72-3.721V3.72A3.726 3.726 0 0024.188 0zm-7.442 26.047h-5.582v-5.116h5.582v5.116zm9.302-8.837a1.86 1.86 0 01-1.86 1.86H3.72a1.86 1.86 0 01-1.86-1.86V3.72a1.86 1.86 0 011.86-1.86h20.466a1.86 1.86 0 011.86 1.86V17.21z"/><path d="M13.953 12.939c3.319 0 6 2.84 6.001 6.325 0 .374-.289.69-.66.69-.37 0-.658-.316-.658-.69 0-2.736-2.105-4.945-4.683-4.945-2.577 0-4.681 2.209-4.682 4.945 0 .374-.288.69-.659.69-.37 0-.659-.316-.659-.69 0-3.484 2.682-6.325 6-6.325zm0-7.923c1.95 0 3.523 1.67 3.523 3.71 0 2.042-1.572 3.71-3.523 3.71-1.95 0-3.521-1.668-3.521-3.71 0-2.04 1.57-3.71 3.521-3.71zm0 1.38c-1.21 0-2.203 1.038-2.203 2.33 0 1.294.993 2.33 2.203 2.33s2.204-1.036 2.204-2.33c0-1.292-.994-2.33-2.204-2.33z"/></symbol><symbol viewBox="0 0 24 29" id="workplace_icon" xmlns="http://www.w3.org/2000/svg"><path d="M11.879.8c1.864 0 3.651.583 5.17 1.69l.284.217c2.777 2.235 3.652 6.19 2.098 9.478l-.164.327-6.768 12.781a.696.696 0 01-.62.373.695.695 0 01-.62-.373L4.492 12.512v-.001C2.665 9.055 3.611 4.749 6.71 2.489l.288-.2A8.742 8.742 0 0111.88.798zm0 1.407c-1.563 0-3.066.49-4.34 1.42-2.528 1.847-3.309 5.385-1.804 8.23l6.144 11.607 6.144-11.608.134-.268c1.32-2.8.512-6.176-1.937-7.96v-.001a7.317 7.317 0 00-4.341-1.42z"/><path d="M17.166 19.398l.65.157c1.48.386 2.69.907 3.563 1.529.996.709 1.58 1.57 1.58 2.525 0 .707-.331 1.36-.9 1.934-.568.573-1.382 1.077-2.375 1.494-1.988.833-4.737 1.337-7.805 1.337-3.068 0-5.816-.504-7.804-1.337-.993-.417-1.807-.921-2.375-1.493-.569-.574-.9-1.228-.9-1.935 0-.955.583-1.816 1.579-2.526.997-.71 2.435-1.288 4.214-1.684l.043.194-.043-.195a.702.702 0 01.837.535l.017.142a.702.702 0 01-.416.651l-.135.044c-1.459.324-2.646.78-3.464 1.292-.83.52-1.226 1.062-1.226 1.547 0 .337.205.72.656 1.115.448.392 1.114.774 1.972 1.108 1.713.669 4.156 1.135 7.045 1.135 2.889 0 5.331-.466 7.045-1.134.857-.335 1.524-.717 1.971-1.109.452-.395.657-.778.657-1.115 0-.487-.395-1.03-1.225-1.549-.716-.448-1.715-.851-2.93-1.162l-.535-.128a.701.701 0 11.304-1.372zM12.205 3.376c.838 0 1.533.587 1.682 1.393l.022.163v.002l.016.184h1.274a1.42 1.42 0 011.418 1.418v4.457a1.42 1.42 0 01-1.418 1.418H8.572a1.418 1.418 0 01-1.413-1.418V6.536a1.42 1.42 0 011.418-1.418h1.275l.015-.184v-.002l.023-.163a1.707 1.707 0 011.681-1.393h.634zm-3.64 3.157c-.004.003-.004.006-.004.007V11c0 .001 0 .004.003.006l.008.004H15.2c.002 0 .005 0 .008-.004.003-.002.004-.005.004-.007V6.54c0-.001 0-.004-.004-.007-.003-.003-.006-.004-.008-.004H8.572c-.002 0-.005 0-.008.004zm3.001-1.745a.3.3 0 00-.293.218l-.005.058-.005.058h1.246l-.005-.058v-.001a.303.303 0 00-.304-.275h-.634z"/></symbol><symbol viewBox="0 0 50 50" id="soc_fb" xmlns="http://www.w3.org/2000/svg"><path d="M25,3C12.85,3,3,12.85,3,25c0,11.03,8.125,20.137,18.712,21.728V30.831h-5.443v-5.783h5.443v-3.848 c0-6.371,3.104-9.168,8.399-9.168c2.536,0,3.877,0.188,4.512,0.274v5.048h-3.612c-2.248,0-3.033,2.131-3.033,4.533v3.161h6.588 l-0.894,5.783h-5.694v15.944C38.716,45.318,47,36.137,47,25C47,12.85,37.15,3,25,3z"/>
</symbol><symbol viewBox="0 0 50 50" id="soc_ig" xmlns="http://www.w3.org/2000/svg"><path d="M 16 3 C 8.83 3 3 8.83 3 16 L 3 34 C 3 41.17 8.83 47 16 47 L 34 47 C 41.17 47 47 41.17 47 34 L 47 16 C 47 8.83 41.17 3 34 3 L 16 3 z M 37 11 C 38.1 11 39 11.9 39 13 C 39 14.1 38.1 15 37 15 C 35.9 15 35 14.1 35 13 C 35 11.9 35.9 11 37 11 z M 25 14 C 31.07 14 36 18.93 36 25 C 36 31.07 31.07 36 25 36 C 18.93 36 14 31.07 14 25 C 14 18.93 18.93 14 25 14 z M 25 16 C 20.04 16 16 20.04 16 25 C 16 29.96 20.04 34 25 34 C 29.96 34 34 29.96 34 25 C 34 20.04 29.96 16 25 16 z"/>
</symbol></svg>